#!OML:ASF E:\id_vita\Project 1\Capture day 1\Session 1\Male1.ASF
:FULLY-SPECIFIED
:DEGREES
522
root 24.6468 16.1549 1.12959 141.574 95.8255 137.957
lowerback -6.53625 1.24779 1.8057
upperback 1.21388 1.48855 0.619383
thorax 4.95721 0.780812 -0.21139
lowerneck -8.66015 0.61499 7.57028
upperneck 9.42995 -0.121312 0.139288
head 4.24744 0.242911 -1.18674
rclavicle 6.4605e-016 -7.95139e-016
rhumerus -23.7246 -8.02514 -85.7983
rradius 23.7462
rwrist 6.88625
rhand -23.9049 35.6076
rfingers 7.12502
rthumb 2.56922 5.64332
lclavicle 6.4605e-016 -7.95139e-016
lhumerus -32.1667 21.5141 75.5105
lradius 4.06901
lwrist -7.27206
lhand -15.5179 50.8219
lfingers 7.12502
lthumb 10.6652 80.5313
rfemur 21.6097 2.65163 27.1005
rtibia 6.36111e-015
rfoot -7.08433 2.68792
rtoes -15.4524
lfemur -29.9718 -0.81313 -17.3057
ltibia 26.5685
lfoot -7.23075 0.547465
ltoes 9.71826
523
root 24.8032 16.1622 1.12366 147.75 95.7018 144.144
lowerback -6.83139 1.25813 1.14877
upperback 1.1201 1.56263 0.382457
thorax 5.01605 0.800969 -0.0752365
lowerneck -8.37857 0.679804 7.79865
upperneck 9.44283 -0.0143824 -0.0725799
head 4.2087 0.291924 -1.28237
rclavicle 2.53699e-014 6.36111e-015
rhumerus -24.1948 -8.67943 -85.78
rradius 23.2586
rwrist 7.35869
rhand -24.0018 35.7821
rfingers 7.12502
rthumb 2.47566 5.81668
lclavicle 2.53699e-014 6.36111e-015
lhumerus -32.2077 21.5352 75.349
lradius 4.00771
lwrist -7.70864
lhand -15.4752 50.5819
lfingers 7.12502
lthumb 10.7064 80.2891
rfemur 22.1149 2.83468 26.4013
rtibia -3.18055e-015
rfoot -5.7377 3.38772
rtoes -14.3697
lfemur -29.4863 -0.309688 -18.1096
ltibia 26.7035
lfoot -6.54048 0.0134205
ltoes 6.93332
524
root 24.9441 16.1713 1.11736 151.86 95.3901 148.264
lowerback -6.83002 1.13948 0.485065
upperback 0.877291 1.46964 0.224123
thorax 4.74779 0.738002 0.118982
lowerneck -7.71494 0.594896 7.74458
upperneck 9.32002 -0.0588594 -0.0303202
head 4.05924 0.267371 -1.26347
rclavicle -7.31776e-015 3.18055e-015
rhumerus -24.9044 -9.2067 -85.6357
rradius 22.7298
rwrist 7.74013
rhand -24.1307 36.267
rfingers 7.12502
rthumb 2.35112 6.30017
lclavicle -7.31776e-015 3.18055e-015
lhumerus -32.4208 21.602 75.2088
lradius 3.97487
lwrist -8.14926
lhand -15.4844 50.3835
lfingers 7.12502
lthumb 10.6976 80.0912
rfemur 22.5418 2.69346 25.7687
rtibia -4.45278e-014
rfoot -4.3596 4.06635
rtoes -14.1048
lfemur -29.0896 0.456885 -19.0038
ltibia 26.8053
lfoot -6.23652 -1.03957
ltoes 1.16257
525
root 25.0897 16.1824 1.10738 156.128 95.1383 152.621
lowerback -6.86877 0.987392 -0.152631
upperback 0.733448 1.32485 0.140266
thorax 4.60676 0.651233 0.373217
lowerneck -7.56459 0.752195 7.53073
upperneck 9.23938 0.160942 0.239479
head 4.46147 0.393223 -1.25935
rclavicle 9.51682e-015 2.78299e-015
rhumerus -25.4058 -9.77994 -85.3946
rradius 22.1504
rwrist 8.3013
rhand -24.0218 36.0597
rfingers 7.12502
rthumb 2.45629 6.09406
lclavicle 9.51682e-015 2.78299e-015
lhumerus -32.5606 21.871 75.1886
lradius 3.92002
lwrist -8.56361
lhand -15.4159 50.4652
lfingers 7.12502
lthumb 10.7636 80.1695
rfemur 20.1545 2.51653 25.1222
rtibia 5.87065
rfoot -5.33101 3.98091
rtoes -12.1126
lfemur -28.5781 1.03851 -19.8279
ltibia 26.9222
lfoot -7.52503 -1.08054
ltoes 6.84318
526
root 25.2314 16.1931 1.09591 161.729 94.9475 158.249
lowerback -7.01175 0.842422 -0.799878
upperback 0.639583 1.19336 0.0112517
thorax 4.58028 0.572029 0.590416
lowerneck -7.22188 0.569463 7.12295
upperneck 9.29182 -0.0426518 0.623303
head 4.39551 0.299934 -1.06482
rclavicle 3.40419e-015 7.95139e-016
rhumerus -25.8396 -10.6375 -85.1477
rradius 21.6294
rwrist 9.24002
rhand -24.0024 35.9221
rfingers 7.12502
rthumb 2.47503 5.95673
lclavicle 3.40419e-015 7.95139e-016
lhumerus -32.5574 22.1857 75.178
lradius 3.8777
lwrist -8.97609
lhand -15.3102 50.5229
lfingers 7.12502
lthumb 10.8656 80.2218
rfemur 17.9347 2.40265 24.3727
rtibia 11.1557
rfoot -5.45226 4.35471
rtoes -8.51525
lfemur -28.1148 1.45475 -20.6659
ltibia 27.0727
lfoot -8.40671 -1.70796
ltoes 8.13968
527
root 25.3695 16.2082 1.0834 165.354 94.8945 161.869
lowerback -7.08629 0.737908 -1.18732
upperback 0.559871 1.09254 -0.0819206
thorax 4.53568 0.514628 0.701038
lowerneck -7.25888 0.552971 7.40798
upperneck 9.75237 -0.0334732 -0.0883298
head 4.11571 0.2778 -1.2273
rclavicle 1.18028e-014 0
rhumerus -26.239 -11.4601 -84.9012
rradius 21.0918
rwrist 9.98059
rhand -23.8691 36.2395
rfingers 7.12502
rthumb 2.60375 6.27567
lclavicle 1.18028e-014 0
lhumerus -32.2986 22.4925 75.2422
lradius 3.71723
lwrist -9.44378
lhand -15.1617 50.6183
lfingers 7.12502
lthumb 11.0088 80.3096
rfemur 16.3121 2.20745 23.8319
rtibia 14.9692
rfoot -5.66755 4.6606
rtoes -9.50292
lfemur -27.7155 1.9634 -21.2659
ltibia 27.3005
lfoot -8.45052 -2.82809
ltoes 2.91753
528
root 25.5112 16.2246 1.06653 167.015 94.91 163.625
lowerback -7.03559 0.698 -1.28976
upperback 0.489368 1.05121 -0.168564
thorax 4.43441 0.494089 0.66295
lowerneck -7.53543 0.533534 7.69917
upperneck 10.1692 -0.079297 -0.519973
head 4.28692 0.253593 -1.41089
rclavicle -8.66577e-015 -3.57812e-015
rhumerus -26.6135 -12.3212 -84.6088
rradius 20.4897
rwrist 10.6626
rhand -23.5858 36.072
rfingers 7.12502
rthumb 2.87737 6.11165
lclavicle -8.66577e-015 -3.57812e-015
lhumerus -31.9726 22.6517 75.306
lradius 3.49654
lwrist -9.93171
lhand -15.1589 50.7289
lfingers 7.12502
lthumb 11.0115 80.4201
rfemur 14.9965 2.01106 23.4466
rtibia 18.2979
rfoot -4.80923 5.80548
rtoes -3.41409
lfemur -27.2333 2.28666 -21.6201
ltibia 27.597
lfoot -8.75539 -2.99881
ltoes 2.26504
529
root 25.6461 16.2351 1.04504 168.494 94.8511 165.202
lowerback -6.99641 0.622116 -1.31828
upperback 0.411795 0.957188 -0.288038
thorax 4.33516 0.449686 0.544118
lowerneck -7.74063 0.542895 7.95951
upperneck 10.5323 -0.0897873 -0.800687
head 4.43189 0.252798 -1.54148
rclavicle -8.79622e-015 -3.97569e-015
rhumerus -26.9762 -13.36 -84.331
rradius 19.9173
rwrist 11.6097
rhand -23.5515 35.7573
rfingers 7.12502
rthumb 2.91055 5.79741
lclavicle -8.79622e-015 -3.97569e-015
lhumerus -31.7198 22.8077 75.2756
lradius 3.44976
lwrist -10.3703
lhand -15.2783 50.7114
lfingers 7.12502
lthumb 10.8963 80.4087
rfemur 13.7979 1.71805 22.9739
rtibia 21.3805
rfoot -4.23777 6.597
rtoes 0.678261
lfemur -26.7962 2.36953 -21.9408
ltibia 27.9176
lfoot -8.90701 -2.81359
ltoes 1.18455
530
root 25.777 16.2436 1.02679 169.514 94.811 166.251
lowerback -7.02074 0.493766 -1.38803
upperback 0.300966 0.794275 -0.33375
thorax 4.23642 0.369556 0.518399
lowerneck -7.75505 0.648054 8.03722
upperneck 10.7529 0.054171 -0.930045
head 4.50845 0.325569 -1.58615
rclavicle 1.01753e-014 -3.97569e-015
rhumerus -27.4469 -14.1583 -84.0463
rradius 19.4437
rwrist 12.4084
rhand -23.4123 35.573
rfingers 7.12502
rthumb 3.04491 5.61503
lclavicle 1.01753e-014 -3.97569e-015
lhumerus -31.6279 23.1175 75.2263
lradius 3.57818
lwrist -10.794
lhand -15.2458 50.7112
lfingers 7.12502
lthumb 10.9277 80.4068
rfemur 12.5004 1.52555 22.5805
rtibia 24.3769
rfoot -3.3009 7.38115
rtoes 2.51762
lfemur -26.3874 2.50946 -22.1988
ltibia 28.1691
lfoot -9.20077 -2.68875
ltoes 0.717657
531
root 25.907 16.2538 1.01616 170.979 94.8946 167.724
lowerback -6.96038 0.419912 -1.57848
upperback 0.0866918 0.710476 -0.349988
thorax 3.97956 0.327997 0.59803
lowerneck -7.57932 0.809083 7.79432
upperneck 11.0379 0.280801 -0.593476
head 4.57697 0.457704 -1.42963
rclavicle 4.67144e-015 -4.77083e-015
rhumerus -28.2366 -14.4957 -83.7582
rradius 19.1352
rwrist 12.6792
rhand -23.1208 35.1747
rfingers 7.12502
rthumb 3.32644 5.22087
lclavicle 4.67144e-015 -4.77083e-015
lhumerus -31.6314 23.3608 75.1941
lradius 3.62679
lwrist -11.2956
lhand -15.5305 51.2259
lfingers 7.12502
lthumb 10.6531 80.9359
rfemur 11.1113 1.6118 22.2809
rtibia 27.3583
rfoot -1.68063 8.17627
rtoes 5.36185
lfemur -25.9226 2.87412 -22.4376
ltibia 28.2685
lfoot -9.71662 -2.73254
ltoes 0.882447
532
root 26.0314 16.2625 1.00723 175.862 94.9872 172.682
lowerback -6.87949 0.360093 -2.08181
upperback 0.0254223 0.675661 -0.482584
thorax 3.8675 0.30426 0.738948
lowerneck -7.01458 0.752866 7.44913
upperneck 10.5735 0.27752 -0.37514
head 4.33821 0.441903 -1.30654
rclavicle 3.17434e-015 3.97569e-015
rhumerus -28.7153 -14.845 -83.6315
rradius 18.8548
rwrist 12.785
rhand -23.0079 34.9222
rfingers 7.12502
rthumb 3.43547 4.97016
lclavicle 3.17434e-015 3.97569e-015
lhumerus -31.2227 23.6293 75.2766
lradius 3.73712
lwrist -11.8485
lhand -15.6859 51.8041
lfingers 7.12502
lthumb 10.5031 81.5217
rfemur 9.79475 1.76751 21.6739
rtibia 30.321
rfoot -0.178944 8.91307
rtoes 7.93975
lfemur -25.333 3.45849 -23.0182
ltibia 28.169
lfoot -10.2988 -3.06363
ltoes 0.145252
533
root 26.1513 16.2702 0.985468 184.057 95.0401 180.936
lowerback -6.8926 0.22171 -2.75261
upperback 0.0914584 0.556764 -0.678854
thorax 3.94305 0.233561 0.900901
lowerneck -7.41171 0.58912 7.59908
upperneck 10.6474 0.0737818 -1.07331
head 4.41704 0.305463 -1.55865
rclavicle 4.27698e-015 -7.15625e-015
rhumerus -28.2535 -16.3408 -83.0702
rradius 17.1978
rwrist 14.3591
rhand -23.1421 35.6851
rfingers 7.12502
rthumb 3.30585 5.73102
lclavicle 4.27698e-015 -7.15625e-015
lhumerus -30.5737 24.1195 75.4696
lradius 3.92082
lwrist -12.3599
lhand -14.9378 51.4415
lfingers 7.12502
lthumb 11.2248 81.1212
rfemur 8.52613 1.65992 20.5449
rtibia 33.1299
rfoot 0.807956 9.96535
rtoes 9.24478
lfemur -24.7089 3.99318 -24.026
ltibia 27.9864
lfoot -10.8523 -3.41303
ltoes -0.496316
534
root 26.2768 16.2813 0.971924 191.578 95.3189 188.581
lowerback -6.89282 0.141843 -3.52933
upperback 0.0658193 0.521484 -0.825362
thorax 3.91345 0.204279 1.18145
lowerneck -5.90087 0.335304 9.07913
upperneck 9.11279 -0.0780166 -3.12412
head 3.68454 0.139113 -2.42985
rclavicle -8.06631e-015 2.38542e-015
rhumerus -28.7586 -16.5029 -82.7904
rradius 17.1133
rwrist 14.6601
rhand -22.8893 35.7005
rfingers 7.12502
rthumb 3.54996 5.75027
lclavicle -8.06631e-015 2.38542e-015
lhumerus -30.1899 24.4738 75.5583
lradius 3.90618
lwrist -12.8159
lhand -14.3369 50.9168
lfingers 7.12502
lthumb 11.8043 80.5642
rfemur 7.30326 1.85659 19.543
rtibia 35.8582
rfoot 1.65394 10.9481
rtoes 8.40673
lfemur -23.9103 4.50422 -24.9413
ltibia 27.6553
lfoot -11.354 -3.54668
ltoes -0.711573
535
root 26.4065 16.2942 0.96761 190.17 95.5461 187.607
lowerback -6.45546 0.163529 -3.60361
upperback 0.0130294 0.532989 -0.800897
thorax 3.61136 0.213715 1.24638
lowerneck -4.206 0.0853573 10.8771
upperneck 7.66101 -0.242427 -4.95145
head 2.94782 0.0128289 -3.27554
rclavicle 1.64184e-014 7.95139e-016
rhumerus -29.4263 -16.8943 -82.4767
rradius 16.8664
rwrist 15.1517
rhand -22.6933 35.3604
rfingers 7.12502
rthumb 3.73924 5.41342
lclavicle 1.64184e-014 7.95139e-016
lhumerus -30.0976 24.5826 75.4291
lradius 3.99135
lwrist -13.2816
lhand -14.2745 50.6126
lfingers 7.12502
lthumb 11.8644 80.2565
rfemur 6.4706 2.31971 19.6088
rtibia 38.3935
rfoot 2.87896 11.6845
rtoes 7.44216
lfemur -22.7588 5.0254 -24.8796
ltibia 27.3187
lfoot -11.972 -3.62265
ltoes -0.777522
